<?xml version="1.0" encoding="UTF-8"?><svg id="Ebene_1" xmlns="http://www.w3.org/2000/svg" xmlns:xlink="http://www.w3.org/1999/xlink" viewBox="0 0 276.6 30"><defs><style>.cls-1,.cls-2{fill:none;}.cls-2{clip-path:url(#clippath);}.cls-3{fill:#161615;}.cls-4{fill:#488ca6;}</style><clipPath id="clippath"><rect class="cls-1" y=".02" width="29.98" height="29.98"/></clipPath></defs><g id="Gruppe_17986"><path id="Pfad_12177" class="cls-3" d="m48.44,27.79c0,1.49-1.03,2.12-2.71,2.12h-2.7v-7.47h2.47c1.94,0,2.49.92,2.49,2,.03.6-.28,1.18-.79,1.49.78.28,1.28,1.03,1.24,1.86m-2.85-4.58h-1.75v2.46h1.85c.73,0,1.5-.12,1.5-1.18s-.6-1.29-1.6-1.29m2.05,4.53c0-1.2-1-1.31-1.87-1.31h-1.93v2.72h1.96c.96,0,1.84-.21,1.84-1.41"/><path id="Pfad_12178" class="cls-3" d="m62.74,29.91h-.86l-.9-2.33h-3.22l-.9,2.33h-.87l2.98-7.47h.8l2.97,7.47Zm-2.06-3.1l-1.31-3.41-1.31,3.41h2.62Z"/><path id="Pfad_12179" class="cls-3" d="m73.84,22.44c2.33,0,3.51,1.25,3.51,3.73s-1.18,3.74-3.51,3.74h-2.34v-7.47h2.34Zm2.7,3.73c0-2.06-.85-2.98-2.75-2.98h-1.48v5.96h1.48c1.9,0,2.75-.92,2.75-2.98"/><path id="Pfad_12180" class="cls-3" d="m86.77,25.67h3.44v.78h-3.44v2.69h3.91v.76h-4.71v-7.47h4.71v.76h-3.91v2.47Z"/><path id="Pfad_12181" class="cls-3" d="m105.44,22.44v7.47h-.91l-4.47-6.29v6.29h-.8v-7.47h.92l4.46,6.29v-6.29h.8Z"/><rect id="Rechteck_7320" class="cls-3" x="114.56" y="25.68" width="3.41" height=".78"/><path id="Pfad_12182" class="cls-3" d="m136.74,22.44l-2.41,7.47h-.82l-1.96-6.09-1.96,6.09h-.83l-2.4-7.47h.85l1.96,6.25,1.97-6.25h.8l1.96,6.25,1.97-6.25h.85Z"/><path id="Pfad_12183" class="cls-3" d="m150.02,22.44v4.4c0,2.04-1.07,3.16-3.03,3.16s-3.03-1.12-3.03-3.16v-4.4h.8v4.45c0,1.6.73,2.37,2.23,2.37s2.23-.77,2.23-2.37v-4.45h.81Zm-4.31-1.53h.9v.9h-.9v-.9Zm1.66,0h.9v.9h-.9v-.9Z"/><path id="Pfad_12184" class="cls-3" d="m164.82,29.91h-.95l-1.95-3.01h-1.9v3.01h-.8v-7.47h2.74c1.61,0,2.53.74,2.53,2.17.06,1.05-.68,1.98-1.71,2.16l2.04,3.14Zm-1.14-5.24c0-.68-.2-1.47-1.77-1.47h-1.89v2.93h1.89c1.57,0,1.77-.78,1.77-1.47"/><path id="Pfad_12185" class="cls-3" d="m178.49,22.44v.78h-2.63v6.68h-.8v-6.68h-2.64v-.78h6.08Z"/><path id="Pfad_12186" class="cls-3" d="m192.41,22.44v.78h-2.63v6.68h-.8v-6.68h-2.64v-.78h6.08Z"/><path id="Pfad_12187" class="cls-3" d="m201.5,25.67h3.44v.78h-3.44v2.69h3.91v.76h-4.71v-7.47h4.71v.76h-3.91v2.47Z"/><path id="Pfad_12188" class="cls-3" d="m220.9,22.44v7.47h-.8v-6.15l-2.64,3.81-2.63-3.81v6.15h-.8v-7.47h.87l2.56,3.8,2.58-3.8h.86Z"/><path id="Pfad_12189" class="cls-3" d="m235.35,27.79c0,1.49-1.03,2.12-2.71,2.12h-2.7v-7.47h2.47c1.94,0,2.49.92,2.49,2,.03.6-.28,1.18-.79,1.49.78.28,1.28,1.03,1.24,1.86m-2.85-4.58h-1.75v2.46h1.85c.73,0,1.5-.12,1.5-1.18s-.6-1.29-1.6-1.29m2.05,4.53c0-1.2-1-1.31-1.87-1.31h-1.93v2.72h1.96c.96,0,1.84-.21,1.84-1.41"/><path id="Pfad_12190" class="cls-3" d="m244.71,25.67h3.44v.78h-3.44v2.69h3.91v.76h-4.71v-7.47h4.71v.76h-3.91v2.47Z"/><path id="Pfad_12191" class="cls-3" d="m263.11,29.91h-.95l-1.95-3.01h-1.9v3.01h-.8v-7.47h2.74c1.61,0,2.53.74,2.53,2.17.06,1.05-.68,1.98-1.71,2.16l2.05,3.14Zm-1.14-5.24c0-.68-.2-1.47-1.77-1.47h-1.89v2.93h1.89c1.57,0,1.77-.78,1.77-1.47"/><path id="Pfad_12192" class="cls-3" d="m273.99,25.69h2.61v3.73c-.81.39-1.7.59-2.61.58-2.3,0-3.46-1.29-3.46-3.83s1.16-3.83,3.46-3.83c.81,0,1.61.16,2.35.47v.78c-.71-.32-1.48-.48-2.26-.48-1.89,0-2.74.95-2.74,3.06s.85,3.06,2.74,3.06c.58,0,1.16-.09,1.71-.27v-2.49h-1.8v-.78Z"/><path id="Pfad_12193" class="cls-3" d="m45.92,2.37v2.08h4.08v2.37h-4.08v4.4h-2.89V.02h7.61v2.35h-4.72Z"/><rect id="Rechteck_7321" class="cls-3" x="62.98" y=".02" width="2.89" height="11.2"/><path id="Pfad_12194" class="cls-3" d="m87.32,8.61v2.61h-7.86V.02h2.89v8.6h4.97Z"/><path id="Pfad_12195" class="cls-3" d="m151.64,11.22l-3.22-4.39-.42.47v3.92h-2.89V.02h2.89v3.16L151.07.02h3.9l-4.48,4.66,4.8,6.54h-3.64Z"/><path id="Pfad_12196" class="cls-3" d="m178.04,11.22h-3.11l-.95-3.03h-3.5l-.95,3.03h-3.11L170.34.02h3.77l3.93,11.2Zm-4.76-5.35l-1.05-3.48-1.04,3.48h2.08Z"/><path id="Pfad_12197" class="cls-3" d="m132.97,11.22h-3.11l-.95-3.03h-3.5l-.95,3.03h-3.11L125.28.02h3.77l3.92,11.2Zm-4.76-5.35l-1.05-3.48-1.04,3.48h2.09Z"/><path id="Pfad_12198" class="cls-3" d="m199.3,5.61c0,3.66-1.85,5.59-5.32,5.59h-4.03V0h4.03C197.45,0,199.3,1.93,199.3,5.61m-2.89.05c0-2.05-.7-3.26-2.44-3.26h-1.14v6.42h1.14c1.73,0,2.44-1.14,2.44-3.17"/><path id="Pfad_12199" class="cls-3" d="m214.44,2.37v2.07h4.26v2.36h-4.26v2.05h4.92v2.37h-7.81V.02h7.81v2.35h-4.92Z"/><path id="Pfad_12200" class="cls-3" d="m242.24.02v11.2h-2.89v-6.78l-2.59,3.71-2.59-3.71v6.78h-2.89V.02h2.84l2.64,3.81L239.4.02h2.84Z"/><path id="Pfad_12201" class="cls-3" d="m109.94.02v11.2h-2.89v-6.75l-2.59,3.71-2.59-3.71v6.75h-2.89V.02h2.84l2.64,3.81L107.1.02h2.84Z"/><rect id="Rechteck_7322" class="cls-3" x="254.21" y=".02" width="2.89" height="11.2"/><path id="Pfad_12202" class="cls-3" d="m271.66,2.37v2.07h4.26v2.36h-4.26v2.05h4.92v2.37h-7.81V.02h7.81v2.35h-4.92Z"/><rect id="Rechteck_7323" class="cls-3" y=".02" width="29.98" height="29.98"/></g><g id="Gruppe_17988"><g class="cls-2"><g id="Gruppe_17987"><path id="Pfad_12203" class="cls-3" d="m29.98,30H0L29.98.02v29.98Z"/></g></g></g><g id="Gruppe_17990"><g id="Gruppe_17989"><path id="Pfad_12204" class="cls-4" d="m0,.02v29.98L29.98.02H0Z"/></g></g></svg>